PathFileType	4	(X/Y/Z)	/Users/niels/Desktop/University/Third Semester/Perception and Action/Exam/Gymnastics Motion Tracking/Code for Gym Tracking/Scripts/Analyzed Data/kraft_bad_id3_1_nmspeed_Sports2D/kraft_bad_id3_1_nmspeed_Sports2D_px_person00.trc
DataRate	CameraRate	NumFrames	NumMarkers	Units	OrigDataRate	OrigDataStartFrame	OrigNumFrames
49.404761904761905	49.404761904761905	8	22	m	49.404761904761905	0	84
Frame#	Time	Hip			RHip			RKnee			RAnkle			RBigToe			RSmallToe			RHeel			LHip			LKnee			LAnkle			LBigToe			LSmallToe			LHeel			Neck			Head			Nose			RShoulder			RElbow			RWrist			LShoulder			LElbow			LWrist		
		X1	Y1	Z1	X2	Y2	Z2	X3	Y3	Z3	X4	Y4	Z4	X5	Y5	Z5	X6	Y6	Z6	X7	Y7	Z7	X8	Y8	Z8	X9	Y9	Z9	X10	Y10	Z10	X11	Y11	Z11	X12	Y12	Z12	X13	Y13	Z13	X14	Y14	Z14	X15	Y15	Z15	X16	Y16	Z16	X17	Y17	Z17	X18	Y18	Z18	X19	Y19	Z19	X20	Y20	Z20	X21	Y21	Z21	X22	Y22	Z22
0	0.0	-0.008202110387044282	-0.5734813158369546	0.0	-0.006623163695131738	-0.5783691567566478	0.0	0.03373395250727539	-0.6976729961650386	0.0	0.025070308008039235	-0.8442072310660008	0.0	0.07491467981405346	-0.8669925597543185	0.0	0.058853239516396684	-0.8684699376184785	0.0	0.012096852824134951	-0.8617020102031633	0.0	0.003148538036082814	-0.5766990272913394	0.0	0.03556155923710181	-0.6957474275328743	0.0	0.021394807997817882	-0.8371995558743103	0.0	0.06777701087862416	-0.8631903400219257	0.0	0.06939985474829374	-0.8549977473187783	0.0	0.0019480977344108678	-0.8563111967305974	0.0	-0.007327421412302365	-0.3814698904052732	0.0	0.005509604758691738	-0.2973060194697304	0.0	0.023275829255724075	-0.34918706606122224	0.0	-0.004121571372481816	-0.40574546857320476	0.0	-0.12699061772249204	-0.4574372395034327	0.0	-0.059929459549865165	-0.38297560289383087	0.0	0.029927032972754345	-0.40380620629073927	0.0	0.13322166522297366	-0.4199789041754634	0.0	0.22823995069632613	-0.41007319420066957	0.0
1	0.020240963855421686	0.009675766022521428	-0.5650942474365825	0.0	0.00472327685988167	-0.5687493924369998	0.0	0.042292633291803425	-0.6936701426847703	0.0	0.027754370163464572	-0.8391388077882491	0.0	0.07505173563649681	-0.8662556779594879	0.0	0.05818403185306299	-0.8676763671447263	0.0	0.013986721276630218	-0.8567208474919881	0.0	0.024571819041663785	-0.5672469918165416	0.0	0.07007399518993146	-0.6826188146509614	0.0	0.03175274751257534	-0.806971316538274	0.0	0.06813205492045823	-0.8386262072760413	0.0	0.07018149854160549	-0.8309368162084335	0.0	0.012352491647766368	-0.8212956941987102	0.0	0.012783001263650126	-0.3759838236709009	0.0	0.025995897749988874	-0.28816988773390734	0.0	0.04573698885801176	-0.34040906326081394	0.0	0.006031254321146379	-0.3978354057866962	0.0	-0.08073329283756897	-0.4346378855204893	0.0	-0.01409835863970224	-0.3636479284745075	0.0	0.05157104672020155	-0.39500473025615274	0.0	0.15367911798509135	-0.40487425936418864	0.0	0.24624644780822855	-0.3888118638166528	0.0
2	0.04048192771084337	0.02776865996742635	-0.5565239817429818	0.0	0.016725755289293442	-0.5589956653378755	0.0	0.0512593700594875	-0.6893020504210535	0.0	0.03084227813091685	-0.8337093756589387	0.0	0.0757097152686309	-0.8650844499646976	0.0	0.058098571776935636	-0.8664422763793083	0.0	0.01629748209464303	-0.8512266668543124	0.0	0.045988727117971466	-0.5576380588247476	0.0	0.10402160342036303	-0.6692911459565279	0.0	0.04386187047521576	-0.7792784427944683	0.0	0.07151588437912512	-0.8164857902875778	0.0	0.07392956546406712	-0.8090760726101743	0.0	0.024381500076429443	-0.789526143485392	0.0	0.03325453211891176	-0.37014967082498174	0.0	0.04709079726095585	-0.27893735733226027	0.0	0.06850225124469768	-0.33151600122444996	0.0	0.017207877625180223	-0.3896053709724201	0.0	-0.03520575280990055	-0.41229360201788623	0.0	0.03113079644404146	-0.3446140701683868	0.0	0.07333251267218494	-0.3860894906592242	0.0	0.17428244956460248	-0.38995011012330644	0.0	0.2644241360779472	-0.36806279902964845	0.0
3	0.06072289156626506	0.046248279302533536	-0.5476536891392656	0.0	0.02990136814209658	-0.5490513018539921	0.0	0.06105102088154994	-0.6842820862989091	0.0	0.034818975492242686	-0.8276562919654414	0.0	0.07744701835788141	-0.8631614906747819	0.0	0.059183431777788134	-0.8644327438206644	0.0	0.019537531125967723	-0.8448453396124253	0.0	0.06739846629781641	-0.5477941774397189	0.0	0.1368861208359008	-0.6557321010625906	0.0	0.059089811462886395	-0.7558638340923018	0.0	0.0802024076418338	-0.798331958039295	0.0	0.08289632069130491	-0.7908519538948064	0.0	0.039362713219739436	-0.763216899784839	0.0	0.054383424487754954	-0.3637589904577728	0.0	0.06930537140492442	-0.26962521497812014	0.0	0.0918409772422013	-0.32251692545495464	0.0	0.03025146444050248	-0.3808735034574875	0.0	0.008947741821186059	-0.39088435474660554	0.0	0.0752219589756863	-0.3262157560517209	0.0	0.09534465777029419	-0.37704450768176545	0.0	0.19518264147900014	-0.37543807997854917	0.0	0.282992998893758	-0.34834083788624715	0.0
4	0.08096385542168674	0.06515858235734072	-0.538433350287534	0.0	0.04450515119520601	-0.5389340097595753	0.0	0.07199787506538395	-0.6784108895229155	0.0	0.040175556540206284	-0.8208312382247935	0.0	0.08079781171302983	-0.8602827173823182	0.0	0.061955333457576624	-0.8614215452773779	0.0	0.024235312730363147	-0.837405028928481	0.0	0.08872932783048648	-0.5377224005178469	0.0	0.1681612382695718	-0.6421084048103375	0.0	0.07814492806346328	-0.7374341271400242	0.0	0.09531126210193624	-0.784587299489476	0.0	0.09821792660327679	-0.7767305498154009	0.0	0.058064031810747326	-0.7432488738584179	0.0	0.07630606823924445	-0.35677030250451675	0.0	0.09288850108399681	-0.26036156517636955	0.0	0.11588814231961489	-0.3135104161363027	0.0	0.04564720036470894	-0.37161406794960783	0.0	0.05120230826168916	-0.37081731811690827	0.0	0.11771967555235475	-0.30879312662083874	0.0	0.11769642814256315	-0.36795010719877697	0.0	0.21645546563427775	-0.36159407165513474	0.0	0.3021391694776536	-0.33012562490734254	0.0
5	0.10120481927710842	0.08443412115525221	-0.5289227703481698	0.0	0.06054367879669896	-0.5287519911208479	0.0	0.0843139851413212	-0.6716376346603677	0.0	0.047357009100056	-0.8132454532576995	0.0	0.08624750256386271	-0.8563598514423262	0.0	0.06686879803759872	-0.8573030392572772	0.0	0.030883068995772492	-0.8289905045464053	0.0	0.1098533820279637	-0.5275406895264237	0.0	0.1974173764436489	-0.6287652828816795	0.0	0.10101252454743936	-0.7238689962774737	0.0	0.11679370655305002	-0.7748102736343182	0.0	0.11986837090074694	-0.7664418567074451	0.0	0.08056902441132369	-0.7294378344627312	0.0	0.0990104547347635	-0.34930476411028716	0.0	0.11779617805592285	-0.25135025638685776	0.0	0.1406339462965748	-0.30464019261020064	0.0	0.06349033657026609	-0.36196185085145627	0.0	0.09120539938645196	-0.35238641277014615	0.0	0.15828685981362206	-0.2926691587976179	0.0	0.14041949924094374	-0.35896562964476425	0.0	0.23809672369104068	-0.34867883217542306	0.0	0.3219722774874361	-0.313819138463923	0.0
6	0.12144578313253011	0.10399895305443069	-0.5192809527742106	0.0	0.07789181629724737	-0.5186701081853083	0.0	0.09811746094109577	-0.6640753141190192	0.0	0.05673200315362062	-0.8050601139937562	0.0	0.09422269613815501	-0.8514123286515475	0.0	0.07433702691809754	-0.8521000384367756	0.0	0.039894561538873045	-0.8199119917990864	0.0	0.13068372714586543	-0.5174405805552156	0.0	0.2244479566109559	-0.6161130980421728	0.0	0.12715772017632104	-0.7145322928449533	0.0	0.14376783260793655	-0.7681543942544952	0.0	0.14697397366311787	-0.7593228606139525	0.0	0.1064171203131815	-0.7209410471484363	0.0	0.122436149760215	-0.341578492529072	0.0	0.14383328262251704	-0.2428084503509947	0.0	0.1660167713004933	-0.29605984008055247	0.0	0.08361114463726628	-0.35215479386167686	0.0	0.12885010132010616	-0.3357470998101055	0.0	0.1967942842112976	-0.27810415709212444	0.0	0.16353995119712317	-0.35028749710404006	0.0	0.26009162260930374	-0.33690517096159467	0.0	0.342564330264951	-0.2996753015074009	0.0
7	0.1416867469879518	0.12384903020269805	-0.5097133175337133	0.0	0.09640880259909769	-0.5088536401805102	0.0	0.11346792782281022	-0.6559572182538882	0.0	0.06859274159557438	-0.7965346091821626	0.0	0.1050919647375481	-0.8455615969696105	0.0	0.08473538806790502	-0.845967670403074	0.0	0.0515935389697757	-0.8106003679152812	0.0	0.1512534411053857	-0.5076216348835795	0.0	0.24933665817050593	-0.6045090352585532	0.0	0.15584494521943978	-0.708578408098176	0.0	0.17499326998046041	-0.7637374649162093	0.0	0.17829141498368214	-0.7546031020827177	0.0	0.13491719431882745	-0.7166463346358775	0.0	0.14656485787206774	-0.33382490553428507	0.0	0.17080527731537773	-0.23493009124291223	0.0	0.19201426913232647	-0.28791948714434107	0.0	0.10575603212654837	-0.3424638969452398	0.0	0.16431378038588712	-0.3209362094029632	0.0	0.23339474343830788	-0.2652482234294516	0.0	0.1871303204035359	-0.3421092564754679	0.0	0.28248921168962104	-0.32640807246818954	0.0	0.36401203316958275	-0.2877831847248678	0.0
